<?xml version="1.0" encoding="utf-8"?>
<!-- Generator: Adobe Illustrator 24.0.1, SVG Export Plug-In . SVG Version: 6.00 Build 0)  -->
<svg version="1.1" id="Calque_1" xmlns="http://www.w3.org/2000/svg" xmlns:xlink="http://www.w3.org/1999/xlink" x="0px" y="0px"
	 viewBox="0 0 40 40" style="enable-background:new 0 0 40 40;" xml:space="preserve">
<g>
	<path d="M27.89,18.78c-0.76,1.42-1.96,2.56-3.6,3.43c-1.64,0.87-1.7,1.3-4.18,1.3h-6.08v11.63H8.96V4.85h11.15
		c2.34,0,2.34,0.41,3.99,1.21c1.65,0.81,2.89,1.92,3.71,3.34c0.83,1.42,1.24,3.02,1.24,4.82C29.04,15.85,28.66,17.37,27.89,18.78z
		 M22.58,17.46c0.81-0.77,1.21-1.84,1.21-3.23c0-2.95-0.65-4.43-3.95-4.43h-5.82v8.81h5.82C21.52,18.61,21.77,18.23,22.58,17.46z"/>
</g>
<rect x="16" y="1" width="2" height="35"/>
<rect x="20" y="1" width="2" height="35"/>
</svg>
